# xmcd
#
# Track frame offsets:
#	150
#	19254
#	34071
#	51452
#	68325
#	85289
#
# Disc length: 1387 seconds
#
# Revision: 1
# Processed by: cddbd v1.5.1PL2 Copyright (c) Steve Scherf et al.
# Submitted via: audiograbber 1.83.01
#
DISCID=47056906
DTITLE=Ýmsir - Gunnar Boringi
DYEAR=1900
DGENRE=
TTITLE0=Á Móti Sól - Hvar sem ég er
TTITLE1=Snooze - Alla leið
TTITLE2=Ampop - Clown
TTITLE3=Crackavan - Stjörnur
TTITLE4=Snorri Snorrason - Allt sem ég á
TTITLE5=Oxford - Þráin
EXTD=
EXTT0=
EXTT1=
EXTT2=
EXTT3=
EXTT4=
EXTT5=
PLAYORDER=
